<svg width="30" height="30" viewBox="0 0 30 30" fill="none" xmlns="http://www.w3.org/2000/svg">
<path d="M28.487 23.6285C28.4378 22.7255 27.8514 21.9406 26.9995 21.6378V10.4995L27.6994 10.9236C27.9388 11.0744 28.2162 11.1546 28.4993 11.1546C29.1695 11.1548 29.7583 10.7105 29.9424 10.066C30.1261 9.42164 29.8602 8.73338 29.2908 8.37998L15.8 0.230211C15.3141 -0.0748961 14.6968 -0.0769561 14.2091 0.225404L0.700742 8.3841C0.187386 8.70729 -0.0806211 9.30789 0.0214551 9.90597C0.123531 10.5038 0.575779 10.9815 1.16718 11.1161C1.27772 11.1413 1.39079 11.1541 1.50431 11.1541C1.78284 11.1546 2.05565 11.0758 2.29116 10.927L3.00066 10.4995V21.6378C2.1488 21.9406 1.56221 22.7255 1.51323 23.6285C0.609881 23.9427 0.0033743 24.7933 0.000856724 25.75C0.0017722 26.2568 0.177087 26.748 0.497276 27.141C0.191048 27.3188 0.00200107 27.6459 0.000856724 28V29C0.000856724 29.5523 0.448527 30 1.00079 30H28.9994C29.5517 30 29.9993 29.5523 29.9993 29V28C29.9975 27.6457 29.8085 27.3186 29.5022 27.1405C29.8229 26.7477 29.9982 26.2568 29.9993 25.75C29.9968 24.7933 29.3903 23.9427 28.487 23.6285ZM27.4994 23.75C27.5005 23.8001 27.4967 23.8505 27.488 23.8999C27.4875 23.9086 27.4875 23.9175 27.488 23.9265C27.488 23.9354 27.4804 23.9425 27.4795 23.9514C27.479 23.9764 27.4809 24.0013 27.485 24.0258C27.4802 24.0915 27.4946 24.157 27.5264 24.2144C27.5374 24.243 27.5514 24.2705 27.5678 24.2964C27.5873 24.3224 27.6093 24.3463 27.6335 24.368C27.6548 24.3904 27.6784 24.4108 27.7033 24.4289C27.7322 24.446 27.7626 24.46 27.7944 24.471C27.8157 24.4827 27.8381 24.493 27.861 24.5014C27.8729 24.5035 27.8848 24.5049 27.8969 24.5053C27.9024 24.5053 27.9063 24.5099 27.9118 24.5104C28.5341 24.5921 28.9994 25.1224 28.9994 25.75C28.9951 26.4385 28.438 26.9956 27.7493 27H22.2496C21.5593 27 20.9997 26.4403 20.9997 25.75C20.9988 25.4165 21.1331 25.097 21.3723 24.8645C21.5257 24.7081 21.719 24.5971 21.9312 24.5433H21.9346C21.9827 24.5307 22.0285 24.511 22.0706 24.485C22.0777 24.4804 22.0811 24.4728 22.0878 24.4685C22.1155 24.4472 22.1411 24.4229 22.1637 24.3964C22.1855 24.3758 22.2052 24.3533 22.2228 24.3289C22.2386 24.3012 22.2516 24.2721 22.2617 24.2419C22.2747 24.213 22.285 24.1831 22.2926 24.1524C22.2976 24.0878 22.2965 24.0228 22.2896 23.9583C22.2896 23.9505 22.2896 23.943 22.2896 23.9349C22.2805 23.9109 22.2693 23.888 22.2562 23.8658C22.2491 23.8418 22.2402 23.8182 22.2297 23.7953C22.0784 23.5577 21.9985 23.2817 21.9996 22.9999C21.9978 22.2789 22.5103 21.6591 23.2186 21.5254C23.9272 21.3918 24.6301 21.7823 24.891 22.4543C24.9644 22.6268 25.0015 22.8125 24.9994 22.9999C24.9994 23.2634 24.9294 23.5223 24.7967 23.75C24.7058 23.9047 24.7049 24.0963 24.7944 24.2517C24.8836 24.4074 25.0496 24.5033 25.229 24.5028C25.4084 24.5024 25.5739 24.406 25.6625 24.2499C25.8824 23.8699 25.9985 23.4389 25.9994 22.9999C25.9989 22.8454 25.9838 22.6914 25.9545 22.5399C26.0509 22.5147 26.15 22.5012 26.2495 22.4998C26.9398 22.4998 27.4994 23.0594 27.4994 23.75ZM20.9997 21.4998V19.4998H21.9996V21.0127C21.6813 21.2528 21.4252 21.5655 21.2522 21.9249C21.0981 21.8386 21.0018 21.6765 20.9997 21.4998ZM23.4997 16.4998C23.7757 16.4998 23.9995 16.7236 23.9995 16.9996V18.4998H22.9996V16.4998H23.4997ZM23.4997 20.4998C23.3317 20.4996 23.1641 20.5163 22.9996 20.5497V19.4998H23.9995V20.5559C23.8352 20.5204 23.6677 20.5016 23.4997 20.4998ZM21.9996 18.4998H20.9997V16.9996C20.9997 16.7236 21.2235 16.4998 21.4998 16.4998H21.9996V18.4998ZM1.76682 10.0765C1.53452 10.22 1.23035 10.1511 1.08296 9.92131C0.935563 9.69173 0.999647 9.38617 1.22669 9.2351L14.7342 1.07572C14.8136 1.02559 14.9058 0.999044 15.0001 0.999273C15.0981 0.999502 15.194 1.02765 15.2766 1.0803L28.7678 9.23052C28.9182 9.32688 29.0058 9.49626 28.9974 9.67479C28.9891 9.85333 28.8861 10.0138 28.7275 10.0959C28.5687 10.1779 28.3783 10.169 28.2279 10.0726L15.259 2.22542C15.0999 2.12883 14.9003 2.12883 14.741 2.22542L1.76682 10.0765ZM15.0001 3.23779L25.9994 9.89361V21.5174C25.8529 21.5341 25.7083 21.5653 25.568 21.6108C25.4142 21.378 25.2221 21.1732 24.9994 21.0047V16.9996C24.9994 16.1713 24.3279 15.4998 23.4997 15.4998H21.4998C20.6713 15.4998 19.9998 16.1713 19.9998 16.9996V21.4998C20.0016 22.1368 20.4065 22.7028 21.0086 22.9104C21.0086 22.9409 20.9997 22.9693 20.9997 22.9999C21.0013 23.2712 21.0471 23.5403 21.1357 23.7969C20.9624 23.8949 20.8036 24.0167 20.6637 24.1583C19.8998 24.9148 19.781 26.1075 20.3808 27H18.9998V16.4998C18.9998 15.3951 18.1045 14.4997 17 14.4997H13.0002C11.8957 14.4997 11.0001 15.3951 11.0001 16.4998V27H9.61936C9.86791 26.6305 10.0004 26.1952 10.0002 25.75C10.0032 25.1549 9.7663 24.5836 9.34289 24.1654C9.20099 24.021 9.03986 23.8972 8.86386 23.7974C8.95266 23.5408 8.99889 23.2714 9.00027 22.9999C9.00027 22.9683 8.99592 22.9404 8.99477 22.9093C9.59464 22.6999 9.99745 22.1352 10.0002 21.4998V16.9996C10.0002 16.1713 9.3287 15.4998 8.50041 15.4998H6.50055C5.67203 15.4998 5.00053 16.1713 5.00053 16.9996V21.0093C4.78058 21.1773 4.58925 21.3799 4.43408 21.6094C4.29309 21.5644 4.14776 21.5332 4.00059 21.5167V9.89361L15.0001 3.23779ZM17.9999 27H12.0003V16.4998C12.0003 15.9475 12.448 15.4998 13.0002 15.4998H17C17.5522 15.4998 17.9999 15.9475 17.9999 16.4998V27ZM8.50041 16.4998C8.77643 16.4998 9.00027 16.7236 9.00027 16.9996V18.4998H8.00033V16.4998H8.50041ZM8.75034 21.9214C8.57571 21.5646 8.31869 21.2544 8.00033 21.0169V19.4998H9.00027V21.4998C8.99775 21.6747 8.90254 21.8351 8.75034 21.9214ZM7.0004 18.4998H6.00046V16.9996C6.00046 16.7236 6.2243 16.4998 6.50055 16.4998H7.0004V18.4998ZM6.00046 19.4998H7.0004V20.5598C6.67037 20.4936 6.33049 20.4936 6.00046 20.5598V19.4998ZM2.0893 24.5104C2.09479 24.5104 2.09868 24.5065 2.10418 24.5053C2.11631 24.5044 2.12821 24.5026 2.14011 24.4998C2.16322 24.4914 2.18565 24.4811 2.20717 24.4694C2.23852 24.4586 2.26873 24.4447 2.29711 24.428C2.32298 24.4094 2.34701 24.3881 2.36875 24.3648C2.39232 24.344 2.41384 24.3208 2.43329 24.2959C2.45 24.2689 2.46419 24.2405 2.47563 24.211C2.50722 24.1535 2.52141 24.0881 2.51614 24.0228C2.5198 23.9988 2.52163 23.9743 2.52163 23.9498C2.52163 23.9409 2.51477 23.9338 2.51317 23.9249C2.51156 23.9159 2.51317 23.9075 2.51317 23.8983C2.50424 23.8493 2.50012 23.7997 2.50058 23.75C2.50058 23.0594 3.0604 22.4998 3.75067 22.4998C3.85046 22.5012 3.94956 22.5145 4.04614 22.5399C4.01639 22.6914 4.00128 22.8454 4.00059 22.9999C4.00151 23.4387 4.11755 23.8697 4.33703 24.2499C4.47504 24.4893 4.78104 24.5715 5.02044 24.4335C5.25984 24.2954 5.342 23.9894 5.20399 23.75C5.07079 23.5225 5.00053 23.2636 5.00053 22.9999C4.99938 22.8072 5.03829 22.6161 5.11496 22.4394C5.35711 21.8381 5.95904 21.4611 6.6056 21.5058C7.25238 21.5504 7.79664 22.0066 7.95387 22.6353C7.98637 22.7541 8.00193 22.8768 8.00033 22.9999C8.00171 23.281 7.92252 23.5566 7.77192 23.7939C7.76116 23.8168 7.75224 23.8406 7.74537 23.8649C7.73233 23.8866 7.72111 23.9095 7.71196 23.9333V23.9569C7.70509 24.0212 7.70395 24.0862 7.70898 24.151C7.71653 24.1817 7.72683 24.2117 7.73988 24.2405C7.74995 24.2707 7.76299 24.2998 7.77901 24.3275C7.79641 24.3517 7.81609 24.3744 7.83783 24.395C7.86072 24.4216 7.88613 24.4456 7.91382 24.4669C7.92046 24.4715 7.92389 24.479 7.93098 24.4834C7.9731 24.5094 8.01887 24.5294 8.06693 24.542H8.07037C8.2855 24.5967 8.48119 24.71 8.63591 24.8695C8.87118 25.1016 9.00278 25.4193 9.00027 25.75C9.00027 26.4403 8.44068 27 7.75041 27H2.25065C1.56221 26.9956 1.00514 26.4385 1.00079 25.75C1.00079 25.122 1.46654 24.5916 2.0893 24.5104ZM1.00079 28H9.00027V29H1.00079V28ZM10.0002 29V28H19.9998V29H10.0002ZM20.9997 29V28H28.9994V29H20.9997Z" fill="black"/>
<path d="M17.0002 21.5002C17.0002 21.7763 16.7763 22.0002 16.5 22.0002C16.2239 22.0002 16 21.7763 16 21.5002C16 21.2239 16.2239 21 16.5 21C16.7763 21 17.0002 21.2239 17.0002 21.5002Z" fill="black"/>
<path d="M12.9999 14.0003H16.9997C17.5519 14.0003 17.9996 13.5524 17.9996 13.0003V9.00003C17.9996 7.34311 16.6566 6 14.9998 6C13.343 6 12 7.34311 12 9.00003V13.0003C12 13.5524 12.4477 14.0003 12.9999 14.0003ZM12.9999 11H14.4997V13.0003H12.9999V11ZM15.4997 13.0003V11H16.9997V13.0003H15.4997ZM16.9997 9.00003V10H15.4997V7.07096C16.3801 7.29825 16.9962 8.09089 16.9997 9.00003ZM14.4997 7.07096V10H12.9999V9.00003C13.0034 8.09089 13.6195 7.29825 14.4997 7.07096Z" fill="black"/>
</svg>
