<svg width="30" height="30" viewBox="0 0 30 30" fill="none" xmlns="http://www.w3.org/2000/svg">
<path d="M1 21.2155L21.2155 1L23 2.78453L2.78453 23L1 21.2155Z" fill="#F0BC5E"/>
<path d="M9.2701 30.0001L0 20.73L20.73 0L30.0001 9.2701L26.32 12.9502L25.6448 12.275L28.6496 9.2701L20.73 1.35041L1.35041 20.73L9.2701 28.6496L12.275 25.6448L12.9502 26.32L9.2701 30.0001Z" fill="black"/>
<path d="M26.1832 12.1084L22.0748 8L18.5271 11.5477L21.0598 14.0804C21.1876 14.2082 21.2579 14.378 21.2579 14.5589C21.2579 14.7397 21.1876 14.9096 21.0598 15.0374L15.0374 21.0593C14.7832 21.3138 14.3334 21.3133 14.0804 21.0593L11.5477 18.5266L9.60444 20.4699L8 22.0748L12.1084 26.1832C12.6276 26.7023 13.3463 27 14.0804 27C14.8145 27 15.5332 26.7023 16.0523 26.1832L26.1832 16.0523C26.71 15.5259 27 14.8255 27 14.0804C27 13.3353 26.71 12.6348 26.1832 12.1084Z" fill="#F0BC5E"/>
<path d="M18 12.3806L22.3806 8L23 8.61965L18.6194 13L18 12.3806Z" fill="black"/>
<path d="M7 22.3803L11.3806 18L12 18.6194L7.61944 23L7 22.3803Z" fill="black"/>
</svg>
