<svg width="26" height="30" viewBox="0 0 26 30" fill="none" xmlns="http://www.w3.org/2000/svg">
<path d="M25.179 19.9089L22.2478 17L21.567 17.6757L24.4982 20.5846C24.8459 20.9296 25.037 21.3883 25.037 21.878C25.037 22.3659 24.8459 22.8246 24.4982 23.1696L22.4867 25.1658C22.139 25.5109 21.6657 25.715 21.1847 25.7006C20.7004 25.7006 20.2265 25.5058 19.8837 25.1658L14.0203 19.3471C13.4907 18.8214 12.7868 18.5324 12.0361 18.5324C11.2868 18.5324 10.583 18.8214 10.0537 19.3471L9.14815 20.2458L6.82843 17.9437C6.59004 17.7067 6.27313 17.5767 5.93623 17.5767C5.33673 17.5767 4.81623 18.0002 4.69868 18.583L4.29196 20.6009L5.09646 21.3993L0.739149 25.7234C0.26237 26.1971 0 26.8258 0 27.4952C0 28.8761 1.13247 30 2.52402 30C3.19804 30 3.8321 29.7396 4.30888 29.2665L8.6662 24.9423L9.4707 25.7407L11.5041 25.3371C12.0918 25.2204 12.5185 24.7039 12.5185 24.1089C12.5185 23.7746 12.3876 23.4606 12.1487 23.2235L9.82899 20.9215L10.7346 20.0228C11.4279 19.3343 12.6431 19.3322 13.3395 20.0228L19.2028 25.8415C19.7248 26.3594 20.4465 26.6562 21.1842 26.6562H21.1885C21.9363 26.6557 22.6388 26.3667 23.1675 25.8415L25.179 23.8453C25.7087 23.3197 26 22.6211 26 21.8762C26 21.1326 25.7087 20.4341 25.179 19.9089ZM2.52402 29.0444C1.66309 29.0444 0.962963 28.3496 0.962963 27.4952C0.962963 27.0815 1.12518 26.6921 1.41999 26.3996L1.44444 26.3753L3.65249 28.5665L3.62804 28.5908C3.33322 28.8834 2.94085 29.0444 2.52402 29.0444ZM4.33333 27.8909L2.12529 25.6996L5.77778 22.0754L7.98535 24.2662L4.33333 27.8909ZM11.5556 24.1089C11.5556 24.2499 11.4545 24.3728 11.3153 24.3999L9.78809 24.7029L5.33767 20.2864L5.64307 18.7708C5.68632 18.5562 5.99195 18.4645 6.14759 18.6194L11.4683 23.8997C11.5238 23.9547 11.5556 24.031 11.5556 24.1089Z" fill="black"/>
<path d="M18.3 19C17.254 19 16.2708 18.593 15.5316 17.8533L6.14668 8.46836C5.40704 7.72872 5 6.74602 5 5.7C5 4.65398 5.40704 3.67128 6.14668 2.93164L7.93164 1.14668C8.67081 0.407043 9.65398 0 10.7 0C11.746 0 12.7287 0.407043 13.4684 1.14668L22.8533 10.5316C23.593 11.2713 24 12.254 24 13.3C24 14.346 23.593 15.3287 22.8533 16.0684L21.0684 17.8533C20.3287 18.593 19.346 19 18.3 19Z" fill="#F0BC5E"/>
<path d="M16 7.82838L16.8285 7L18 8.17134L17.1715 9L16 7.82838Z" fill="black"/>
<path d="M15.2808 7L11.6931 3.36796C11.2628 2.93234 10.5095 2.93234 10.0792 3.36796L9.71948 3.73214L9 3.00402L9.35974 2.63984C9.76718 2.22711 10.3093 2 10.8861 2C11.463 2 12.0051 2.22711 12.4125 2.63984L16 6.27163L15.2808 7Z" fill="black"/>
</svg>
