<svg width="35" height="25" viewBox="0 0 35 25" fill="none" xmlns="http://www.w3.org/2000/svg">
<path d="M10.5 6C5.81255 6 2 9.8131 2 14.5C2 19.1869 5.81255 23 10.5 23C15.1869 23 19 19.1869 19 14.5C19 9.8131 15.1869 6 10.5 6ZM10.5 17.9C8.62209 17.9 7.1 16.3774 7.1 14.5C7.1 12.6226 8.62209 11.1 10.5 11.1C12.3774 11.1 13.9 12.6226 13.9 14.5C13.9 16.3774 12.3774 17.9 10.5 17.9Z" fill="#F0BC5E"/>
<path d="M11 10C8.79492 10 7 11.7946 7 14C7 16.2051 8.79492 18 11 18C13.2051 18 15 16.2051 15 14C15 11.7946 13.2051 10 11 10ZM11 16.8571C9.42467 16.8571 8.14286 15.5753 8.14286 14C8.14286 12.4244 9.42467 11.1429 11 11.1429C12.5753 11.1429 13.8571 12.4244 13.8571 14C13.8571 15.5753 12.5753 16.8571 11 16.8571Z" fill="black"/>
<path d="M25.7213 14.3L35 4.73093L30.2861 0L20.8795 9.44069L18.1913 6.7428C16.1785 4.72296 13.5027 3.61038 10.6562 3.61038C7.80979 3.61038 5.13395 4.72296 3.12112 6.7428C1.10829 8.76237 0 11.4484 0 14.3052C0 17.1617 1.10884 19.8472 3.12112 21.8673C5.13341 23.8877 7.80979 25 10.6562 25C13.5027 25 16.1785 23.8871 18.1913 21.8673L25.3354 14.6979L25.3365 14.6968L25.7265 14.3052L25.7213 14.3ZM30.2861 1.59163L33.4248 4.74164L33.2627 4.90875L33.2547 4.90106L32.9458 5.21108C32.5274 5.6305 31.9714 5.86192 31.3794 5.86192C30.1577 5.86192 29.1644 4.86505 29.1644 3.63896C29.1644 3.04447 29.395 2.48681 29.8126 2.06684L30.1218 1.75682L30.2861 1.59163ZM22.7146 9.19058L23.7202 10.2001L24.5133 9.40413L23.5077 8.3949L24.958 6.93904L25.9636 7.94855L26.7567 7.1526L25.7511 6.14336L28.0523 3.83383C28.1509 5.54722 29.5363 6.91595 31.2526 6.98137L24.9276 13.5035L21.6726 10.2366L22.7146 9.19058ZM17.3983 21.0716C15.5974 22.8785 13.2031 23.8742 10.6562 23.8742C8.10939 23.8742 5.71507 22.8785 3.91421 21.0716C2.11334 19.2648 1.12171 16.8613 1.12171 14.3052C1.12171 11.7491 2.11388 9.34614 3.91421 7.53875C5.71453 5.73109 8.10939 4.73615 10.6562 4.73615C13.2031 4.73615 15.5974 5.73192 17.3983 7.53875L24.1403 14.3052L17.3983 21.0716Z" fill="black"/>
</svg>
