<svg width="30" height="30" viewBox="0 0 30 30" fill="none" xmlns="http://www.w3.org/2000/svg">
<path d="M9.02028 10L0 19.0203L10.9797 30L20 20.9797L9.02028 10ZM1.38538 19.0203L9.02028 11.3854L9.79717 12.1623L2.16227 19.7972L1.38538 19.0203ZM4.32453 21.9594L5.44776 20.8362L4.75507 20.1435L3.63184 21.2667L2.85496 20.4899L10.4899 12.855L11.2667 13.6318L5.73479 19.1638L6.42748 19.8565L11.9594 14.3245L12.7363 15.1014L5.10142 22.7363L4.32453 21.9594ZM5.79411 23.429L13.429 15.7941L14.2059 16.571L6.57099 24.2059L5.79411 23.429ZM7.26368 24.8986L14.8986 17.2637L15.6755 18.0406L8.04057 25.6755L7.26368 24.8986ZM10.2028 27.8377L15.7348 22.3058L15.0421 21.6131L9.51014 27.145L8.73326 26.3682L16.3682 18.7333L17.145 19.5101L16.0218 20.6334L16.7145 21.3261L17.8377 20.2028L18.6146 20.9797L10.9797 28.6146L10.2028 27.8377Z" fill="black"/>
<path d="M20.0291 23L8 10.9709L9.12978 9.84108C9.66435 9.3065 10.4044 9 11.1603 9C11.9162 9 12.6562 9.3065 13.1908 9.84108L14.4204 11.0709C14.7476 11.3981 15.2483 11.5345 15.6931 11.4236L17.7164 10.9182L20.0818 13.2836L19.5764 15.3057C19.5497 15.4123 19.5364 15.521 19.5364 15.6309C19.5364 15.9841 19.6793 16.3296 19.9291 16.5793L21.1589 17.8092C21.6935 18.3438 22 19.0838 22 19.8397C22 20.5956 21.6935 21.3356 21.1589 21.8702L20.0291 23Z" fill="#F0BC5E"/>
<path d="M26.697 0C25.8149 0 24.9859 0.343289 24.3616 0.967606L17.7416 7.58773L17.6844 7.64442L16 11.0131L18.9868 14L22.3557 12.3155L29.0324 5.63823C29.6567 5.01415 30 4.18561 30 3.30304C30 1.48145 28.5186 0 26.697 0ZM17.2077 10.8179L18.2288 8.77653L21.2241 11.7719L19.1828 12.793L17.2077 10.8179ZM28.3308 4.93687L22.0616 11.2057L18.7945 7.93853L25.0632 1.66896C25.5 1.2324 26.08 0.992317 26.697 0.992317C27.9713 0.992317 29.0077 2.02873 29.0077 3.30304C29.0077 3.92009 28.7676 4.50007 28.3308 4.93687Z" fill="black"/>
<path d="M26.5 5C25.6729 5 25 4.3269 25 3.5C25 2.6731 25.6729 2 26.5 2C27.3269 2 28 2.6731 28 3.5C28 4.3269 27.3269 5 26.5 5Z" fill="#F0BC5E"/>
</svg>
