<svg width="783" height="688" viewBox="0 0 783 688" fill="none" xmlns="http://www.w3.org/2000/svg">
<path d="M782.5 337.5C782.5 430.515 732.195 517.887 658.57 582.022C584.946 646.155 488.059 687 395 687C301.847 687 179.181 667.631 95.5101 626.364C53.6692 605.728 21.6619 579.656 7.91101 547.872C-5.81767 516.139 -1.4 478.584 29.886 434.82C71.0311 391.794 105.956 343.118 138.104 294.322C151.314 274.271 164.05 254.208 176.557 234.508C194.505 206.234 211.979 178.708 229.7 153.034C289.835 65.9137 352.578 0.5 445.5 0.5C631.62 0.5 782.5 151.38 782.5 337.5Z" fill="#F0BC5E" stroke="black"/>
</svg>
